#!OML:ASF H:\Not Pregnant\Project 1\Capture day 1\Session 1\non-pregnant.ASF
:FULLY-SPECIFIED
:DEGREES
1154
root -5.93727 16.0824 35.1477 189.973 -73.541 -179.148
lowerback -10.407 0.687314 -3.79102
upperback -3.71268 1.14621 -0.704158
thorax 1.90104 0.5156 1.53527
lowerneck 43.1725 -14.7802 -24.2084
upperneck -36.3784 -27.7365 51.8445
head -4.49084 -20.4342 33.998
rclavicle -4.8491e-014 5.1684e-015
rhumerus -31.8065 13.7666 -97.0505
rradius 26.2422
rwrist 21.4348
rhand -10.0676 3.56119
rfingers 7.12502
rthumb 15.9186 -25.8046
lclavicle -4.8491e-014 5.1684e-015
lhumerus -40.5671 -14.052 96.1305
lradius 31.8202
lwrist 35.913
lhand -14.2375 -13.8608
lfingers 7.12502
lthumb 11.9001 15.781
rfemur -18.3815 7.93481 15.6537
rtibia 26.5298
rfoot -18.6856 2.00056
rtoes -23.4334
lfemur -12.7807 7.97676 -21.2542
ltibia 17.2151
lfoot -17.2319 -3.8943
ltoes -19.5762
1155
root -5.94635 16.0859 35.1295 189.637 -73.5095 -178.792
lowerback -10.4618 0.690066 -3.6895
upperback -3.72641 1.1403 -0.673585
thorax 1.91889 0.511873 1.51002
lowerneck 43.1804 -14.7738 -24.2461
upperneck -36.3268 -27.7655 51.864
head -4.4436 -20.457 33.9771
rclavicle -1.86609e-014 3.97569e-016
rhumerus -31.8361 13.9032 -97.0596
rradius 26.2662
rwrist 21.2802
rhand -9.89263 3.58608
rfingers 7.12502
rthumb 16.087 -25.7662
lclavicle -1.86609e-014 3.97569e-016
lhumerus -40.5575 -14.0195 96.1387
lradius 31.7988
lwrist 35.8956
lhand -14.1414 -13.867
lfingers 7.12502
lthumb 11.9927 15.7694
rfemur -18.2402 7.95283 15.8314
rtibia 26.3301
rfoot -18.6253 2.06555
rtoes -23.4039
lfemur -12.6652 7.67611 -21.0655
ltibia 17.1325
lfoot -17.1729 -3.48612
ltoes -19.8664
1156
root -5.95525 16.0893 35.1112 189.287 -73.4777 -178.42
lowerback -10.5148 0.691443 -3.58604
upperback -3.74004 1.13214 -0.640855
thorax 1.93596 0.50705 1.48561
lowerneck 43.1864 -14.7648 -24.2825
upperneck -36.2726 -27.7905 51.8813
head -4.39866 -20.4772 33.9577
rclavicle 2.45872e-014 -3.57812e-015
rhumerus -31.8643 14.0404 -97.0702
rradius 26.2879
rwrist 21.1451
rhand -9.72626 3.61705
rfingers 7.12502
rthumb 16.2472 -25.7222
lclavicle 2.45872e-014 -3.57812e-015
lhumerus -40.5536 -13.9922 96.1504
lradius 31.7791
lwrist 35.8768
lhand -14.0602 -13.8907
lfingers 7.12502
lthumb 12.0711 15.7411
rfemur -18.0943 7.98891 16.0137
rtibia 26.1254
rfoot -18.5564 2.11868
rtoes -23.36
lfemur -12.553 7.38642 -20.8717
ltibia 17.0572
lfoot -17.1165 -3.09099
ltoes -20.1346
1157
root -5.96399 16.0926 35.0929 188.932 -73.4468 -178.042
lowerback -10.5665 0.695507 -3.47862
upperback -3.75358 1.12702 -0.611162
thorax 1.95235 0.503719 1.45615
lowerneck 43.18 -14.768 -24.3258
upperneck -36.2092 -27.8318 51.9069
head -4.33385 -20.5088 33.913
rclavicle -5.19698e-014 -3.97569e-016
rhumerus -31.8852 14.132 -97.0704
rradius 26.3024
rwrist 21.0697
rhand -9.55945 3.65807
rfingers 7.12502
rthumb 16.4079 -25.668
lclavicle -5.19698e-014 -3.97569e-016
lhumerus -40.5577 -13.9923 96.1698
lradius 31.7699
lwrist 35.8679
lhand -13.997 -13.9092
lfingers 7.12502
lthumb 12.132 15.719
rfemur -17.948 8.02445 16.1984
rtibia 25.9182
rfoot -18.4863 2.17142
rtoes -23.3085
lfemur -12.4474 7.10474 -20.6774
ltibia 16.9905
lfoot -17.0633 -2.70219
ltoes -20.4143
1158
root -5.97259 16.0956 35.0747 188.581 -73.4175 -177.67
lowerback -10.6169 0.696187 -3.37292
upperback -3.76771 1.11729 -0.578233
thorax 1.96755 0.49813 1.43042
lowerneck 43.1666 -14.7751 -24.3932
upperneck -36.1381 -27.891 51.9418
head -4.24568 -20.5514 33.8517
rclavicle -2.43138e-014 5.96354e-015
rhumerus -31.9011 14.1899 -97.0568
rradius 26.3066
rwrist 21.0599
rhand -9.38575 3.70658
rfingers 7.12502
rthumb 16.5751 -25.6056
lclavicle -2.43138e-014 5.96354e-015
lhumerus -40.5699 -13.9947 96.2003
lradius 31.766
lwrist 35.848
lhand -13.9751 -13.9224
lfingers 7.12502
lthumb 12.1531 15.7046
rfemur -17.8019 8.05228 16.3819
rtibia 25.712
rfoot -18.4198 2.23142
rtoes -23.2446
lfemur -12.347 6.82541 -20.4853
ltibia 16.9323
lfoot -17.0113 -2.31993
ltoes -20.6725
1159
root -5.98102 16.0984 35.0566 188.227 -73.3915 -177.294
lowerback -10.6659 0.698401 -3.26409
upperback -3.78116 1.1092 -0.548332
thorax 1.98266 0.493336 1.39994
lowerneck 43.1476 -14.791 -24.4564
upperneck -36.0668 -27.9571 51.9798
head -4.15226 -20.5989 33.7788
rclavicle 1.27968e-014 -1.19271e-014
rhumerus -31.9175 14.2502 -97.0523
rradius 26.3096
rwrist 21.0654
rhand -9.23159 3.73294
rfingers 7.12502
rthumb 16.7235 -25.5667
lclavicle 1.27968e-014 -1.19271e-014
lhumerus -40.589 -14.0196 96.2363
lradius 31.7711
lwrist 35.832
lhand -13.9678 -13.9314
lfingers 7.12502
lthumb 12.1602 15.6952
rfemur -17.6566 8.07192 16.5679
rtibia 25.508
rfoot -18.3583 2.29371
rtoes -23.1816
lfemur -12.2523 6.5507 -20.2925
ltibia 16.8816
lfoot -16.9607 -1.9478
ltoes -20.9159
